/* XPM */
static char *e9291f45c5544994e82d034730e9eeb7lxd0vFypqIHDfyu0[] = {
/* columns rows colors chars-per-pixel */
"64 64 256 2 ",
"   c black",
".  c #0000A8",
"X  c #00A800",
"o  c #00A8A8",
"O  c #A80000",
"+  c #A800A8",
"@  c #A85400",
"#  c gray66",
"$  c gray33",
"%  c #5454FC",
"&  c #54FC54",
"*  c #54FCFC",
"=  c #FC5454",
"-  c #FC54FC",
";  c #FCFC54",
":  c gray99",
">  c #ECECEC",
",  c gainsboro",
"<  c #D0D0D0",
"1  c #C0C0C0",
"2  c #B4B4B4",
"3  c gray66",
"4  c #989898",
"5  c gray55",
"6  c #7C7C7C",
"7  c gray44",
"8  c #646464",
"9  c gray33",
"0  c #484848",
"q  c gray22",
"w  c #2C2C2C",
"e  c #202020",
"r  c #FC0000",
"t  c #EC0000",
"y  c #E00000",
"u  c #D40000",
"i  c #C80000",
"p  c #BC0000",
"a  c #B00000",
"s  c #A40000",
"d  c #980000",
"f  c #880000",
"g  c #7C0000",
"h  c #700000",
"j  c #640000",
"k  c #580000",
"l  c #4C0000",
"z  c #400000",
"x  c #FCD8D8",
"c  c #FCB8B8",
"v  c #FC9C9C",
"b  c #FC7C7C",
"n  c #FC5C5C",
"m  c #FC4040",
"M  c #FC2020",
"N  c #FC0000",
"B  c #FCA85C",
"V  c #FC9840",
"C  c #FC8820",
"Z  c #FC7800",
"A  c #E46C00",
"S  c #CC6000",
"D  c #B45400",
"F  c #9C4C00",
"G  c #FCFCD8",
"H  c #FCFCB8",
"J  c #FCFC9C",
"K  c #FCFC7C",
"L  c #FCF85C",
"P  c #FCF440",
"I  c #FCF420",
"U  c #FCF400",
"Y  c #E4D800",
"T  c #CCC400",
"R  c #B4AC00",
"E  c #9C9C00",
"W  c #848400",
"Q  c #706C00",
"!  c #585400",
"~  c #404000",
"^  c #D0FC5C",
"/  c #C4FC40",
"(  c #B4FC20",
")  c #A0FC00",
"_  c #90E400",
"`  c #80CC00",
"'  c #74B400",
"]  c #609C00",
"[  c #D8FCD8",
"{  c #BCFCB8",
"}  c #9CFC9C",
"|  c #80FC7C",
" . c #60FC5C",
".. c #40FC40",
"X. c #20FC20",
"o. c #00FC00",
"O. c #00FC00",
"+. c #00EC00",
"@. c #00E000",
"#. c #00D400",
"$. c #04C800",
"%. c #04BC00",
"&. c #04B000",
"*. c #04A400",
"=. c #049800",
"-. c #048800",
";. c #047C00",
":. c #047000",
">. c #046400",
",. c #045800",
"<. c #044C00",
"1. c #044000",
"2. c #D8FCFC",
"3. c #B8FCFC",
"4. c #9CFCFC",
"5. c #7CFCF8",
"6. c #5CFCFC",
"7. c #40FCFC",
"8. c #20FCFC",
"9. c #00FCFC",
"0. c #00E4E4",
"q. c #00CCCC",
"w. c #00B4B4",
"e. c #009C9C",
"r. c #008484",
"t. c #007070",
"y. c #005858",
"u. c #004040",
"i. c #5CBCFC",
"p. c #40B0FC",
"a. c #20A8FC",
"s. c #009CFC",
"d. c #008CE4",
"f. c #007CCC",
"g. c #006CB4",
"h. c #005C9C",
"j. c #D8D8FC",
"k. c #B8BCFC",
"l. c #9C9CFC",
"z. c #7C80FC",
"x. c #5C60FC",
"c. c #4040FC",
"v. c #2024FC",
"b. c #0004FC",
"n. c #0000FC",
"m. c #0000EC",
"M. c #0000E0",
"N. c #0000D4",
"B. c #0000C8",
"V. c #0000BC",
"C. c #0000B0",
"Z. c #0000A4",
"A. c #000098",
"S. c #000088",
"D. c #00007C",
"F. c #000070",
"G. c #000064",
"H. c #000058",
"J. c #00004C",
"K. c #000040",
"L. c #282828",
"P. c #FCE034",
"I. c #FCD424",
"U. c #FCCC18",
"Y. c #FCC008",
"T. c #FCB400",
"R. c #B420FC",
"E. c #A800FC",
"W. c #9800E4",
"Q. c #8000CC",
"!. c #7400B4",
"~. c #60009C",
"^. c #500084",
"/. c #440070",
"(. c #340058",
"). c #280040",
"_. c #FCD8FC",
"`. c #FCB8FC",
"'. c #FC9CFC",
"]. c #FC7CFC",
"[. c #FC5CFC",
"{. c #FC40FC",
"}. c #FC20FC",
"|. c #FC00FC",
" X c #E000E4",
".X c #C800CC",
"XX c #B400B4",
"oX c #9C009C",
"OX c #840084",
"+X c #6C0070",
"@X c #580058",
"#X c #400040",
"$X c #FCE8DC",
"%X c #FCE0D0",
"&X c #FCD8C4",
"*X c #FCD4BC",
"=X c #FCCCB0",
"-X c #FCC4A4",
";X c #FCBC9C",
":X c #FCB890",
">X c #FCB080",
",X c #FCA470",
"<X c #FC9C60",
"1X c #F0945C",
"2X c #E88C58",
"3X c #DC8854",
"4X c #D08050",
"5X c #C87C4C",
"6X c #BC7848",
"7X c #B47044",
"8X c #A86840",
"9X c #A0643C",
"0X c #9C6038",
"qX c #905C34",
"wX c #885830",
"eX c #80502C",
"rX c #744C28",
"tX c #6C4824",
"yX c #5C4020",
"uX c #543C1C",
"iX c #483818",
"pX c #403018",
"aX c #382C14",
"sX c #28200C",
"dX c #600064",
"fX c #006464",
"gX c #006060",
"hX c #00001C",
"jX c #00002C",
"kX c #302410",
"lX c #480048",
"zX c #500050",
"xX c #000034",
"cX c gray11",
"vX c #4C4C4C",
"bX c gray36",
"nX c gray25",
"mX c gray19",
"MX c #343434",
"NX c #D8F4F4",
"BX c #B8E8E8",
"VX c #9CDCDC",
"CX c #74C8C8",
"ZX c #48C0C0",
"AX c #20B4B4",
"SX c #20B0B0",
"DX c #00A4A4",
"FX c #009898",
"GX c #008C8C",
"HX c #008484",
"JX c #007C7C",
"KX c #007878",
"LX c #007474",
"PX c #007070",
"IX c #006C6C",
"UX c #980088",
/* pixels */
"q G.G.G.G.G.G.G.G.G.G.G.G.G.G.G.G.G.G.G.G.G.G.G.G.G.G.G.q q G.G.G.G.G.G.G.G.G.G.G.G.G.q q G.G.G.G.G.G.G.G.G.G.G.G.q G.G.G.G.G.q ",
"e G.G.G.G.G.G.G.G.G.G.G.F.F.F.G.G.G.G.G.G.G.H.H.H.J.K.K.e e G.G.G.G.G.G.G.G.H.J.J.J.J.e e G.G.G.G.G.G.G.G.J.J.e e e F.F.F.F.H.e ",
"  G.G.G.J.G.K.G.G.H.K.H.G.F.F.G.H.K.K.G.J.K.K.K.K.e e e     G.G.H.H.J.G.G.H.J.J.J.J.e     G.D.F.D.F.D.D.D.D.D.H.K.  F.F.J.H.J.  ",
"  G.H.K.J.H.H.H.K.G.G.H.J.G.F.F.G.J.K.K.H.H.K.K.K.e e e     G.H.G.G.J.H.H.K.J.K.G.e e     G.F.D.D.G.D.S.F.D.G.H.K.  G.G.F.H.e   ",
"  G.J.G.e H.F.F.K.K.H.H.K.K.G.G.J.K.H.e K.e e K.e K.e e     G.H.J.J.H.H.K.J.K.e e e e     G.D.F.G.S.D.F.G.H.J.J.e   J.e K.K.e   ",
"  G.J.K.G.H.F.F.F.H.K.H.G.K.K.J.J.K.J.J.e e K.e K.K.K.e     G.G.J.G.G.K.e e e J.K.e e     G.D.G.S.C.S.G.D.G.H.e K.  H.J.e e e   ",
"  G.H.H.H.H.H.F.F.H.K.K.K.e J.e J.e J.J.J.K.e K.e K.K.e     G.G.G.J.J.K.e J.J.J.e K.e     G.F.D.G.D.D.G.G.F.K.K.e   H.K.e e e   ",
"  G.G.H.H.H.H.H.H.K.e J.J.H.H.H.K.K.K.J.J.K.K.e e e e e     G.G.J.K.J.J.J.K.J.K.e e e     G.F.D.F.G.F.F.F.G.K.e K.  H.e e e e   ",
"  G.H.K.H.K.K.H.H.K.H.K.K.H.H.H.K.K.K.J.K.K.K.e K.e e e     G.H.J.J.e J.G.G.K.e K.e e     G.F.S.F.F.D.G.G.G.H.e e               ",
"  G.J.J.J.K.K.K.H.K.K.J.K.K.H.H.K.K.K.K.K.K.e K.K.K.e e     G.J.J.e K.K.J.J.e e e e e     G.F.D.G.F.G.G.J.H.J.e e   H.F.F.F.G.  ",
"  H.K.J.G.J.J.H.H.K.K.K.K.e J.e K.K.K.e K.e K.K.K.K.e e     H.J.K.K.e J.J.e K.K.e e e     G.F.D.D.G.D.G.J.J.K.e e   G.F.H.F.J.  ",
"  H.J.H.K.K.G.J.e K.K.K.e K.K.e e K.K.e e K.e e K.K.e e     H.J.K.e K.e J.e e e e e       G.F.D.D.F.G.J.G.H.K.e e   H.G.J.H.e   ",
"  H.K.H.K.e J.J.K.e K.e K.e e K.e e e e e e e e e e e       H.K.J.K.K.K.e e e e e e e     G.F.D.D.G.H.H.K.J.e e e   H.G.H.e e   ",
"  H.H.K.K.K.e e e e e e e e e e e e e e e e e e e e e e e e e e e e e e e e e e e e e e e e e e e e e e e K.K.e e   J.J.K.e e   ",
"  H.K.H.e e e e K.e e e 8 8 0 0 0 0 0 0 0 0 0 0 0 0 0 0 0 0 0 0 0 0 0 0 0 0 0 0 0 0 0 0 0 0 0 0 0 q q w   e K.K.e   K.e e e e   ",
"                      e 8 q e e e e e e e e e e e e e e e e e e e e e e e e e e e e e e e e e e e e e e   e K.K.K.              ",
"G.D.F.G.F.G.G.G.G.G.F.e 0 e e e e e e e e e e e e e e e e e e e e e e e e e e e e e e e e e e e e e e e   K.e K.K.  e S.S.S.S.S.",
"D.F.F.F.G.D.F.G.J.G.G.e 0 e e                                                                     w e e   K.e e e   J.S.S.Z.D.S.",
"D.F.F.F.F.G.G.J.K.H.H.e 0 e e       e             e             e             e           e       w e e   K.e e e   G.S.Z.V.Z.F.",
"F.G.H.F.F.H.H.K.K.K.H.e 0 e e       w e           w e           w e           w e         w e     q e e   K.K.e e   G.S.S.Z.F.S.",
"G.J.H.F.D.F.K.K.H.H.K.e 0 e e       q e           q e           q e           q e         q e     q e e   K.K.K.e   F.S.S.F.G.F.",
"G.G.J.H.F.F.K.H.K.K.e e 0 e e       0 e           0 e           0 e           0 e         0 e     0 e e   K.K.e e   D.S.S.F.S.G.",
"F.J.K.J.H.G.H.K.K.H.e e 0 e e       0 e           0 e           0 e           0 e         0 e     0 e e   K.K.K.e   F.S.F.D.F.G.",
"F.G.J.H.K.H.K.H.H.K.e e 0 e e       0 e           0 e           0 e           0 e         0 e     0 e e   e K.e e   F.S.F.G.H.D.",
"F.F.H.J.F.H.H.F.H.K.K.e 0 e e       0 e           0 e           0 e           0 e         0 e     0 e e q K.e e e   G.S.S.F.S.S.",
"F.G.J.K.J.J.K.G.F.H.K.e 0 e e       0 e           0 e           0 e           0 e         0 e     0 e e 9 e e e e   G.S.F.S.D.F.",
"G.H.K.F.G.H.K.J.H.K.e e 0 e e       0 e           0 e           0 e           0 e         0 e     0 e e e e e e e   G.S.S.S.F.G.",
"F.H.F.F.G.H.H.K.e K.e e 0 e e       0 e           0 e           0 e           0 e         0 e     0 e e q e e e e   J.S.S.S.F.F.",
"G.J.J.G.G.H.K.K.K.e K.e 0 e e       0 e           0 e           0 e           0 e         0 e     0 e e 9 e e e e   J.S.F.S.S.G.",
"G.H.J.K.H.K.H.K.e K.e e 0 e e       0 e           0 e           0 e           0 e         0 e     0 e e q e e e e   J.S.S.D.F.F.",
"H.J.H.H.J.K.K.H.H.K.e e 0 e e       0 e           0 e           0 e           0 e         0 e     0 e e   e e e e   J.S.S.F.H.G.",
"H.J.J.K.J.G.H.H.H.H.K.e 0 e e       0 e           0 e           0 e           0 e         0 e     0 e e   K.K.e e   J.S.F.S.F.H.",
"H.J.G.H.J.H.G.K.H.H.e e 0 e e w q 0 q e w w       0 e           0 e           0 e         0 e     0 e e   e K.e e   J.S.F.S.J.J.",
"H.G.H.J.J.J.J.K.K.e K.e 0 e e e e e e e e e       0 e           0 e           0 e         0 e     0 e e   J.e e e   J.S.S.J.H.J.",
"K.H.H.J.K.K.K.K.K.K.e e 0 e e e e e e e e e       0 e           0 e           0 e         0 e     0 e e   J.K.e e   e S.F.S.H.H.",
"K.J.J.K.e K.e K.K.e   e 0 e e e e e e e e e       0 e           0 e           0 e         0 e     0 e e   K.e K.e   e S.F.H.H.J.",
"K.J.J.J.K.e K.e e e e e 0 e e e e e   e e e       0 e           0 e           0 e         0 e     0 e e   e K.e e   e F.F.H.J.J.",
"K.H.K.e K.e e e e   e e 0 e e   e       e e       0 e           0 e           0 e         0 e     0 e e   K.e K.e   e F.H.J.H.J.",
"K.J.H.J.e K.e e e e e e 0 e e   e       e e       0 e           0 e           0 e         0 e     0 e e   e K.e e   e F.H.H.H.J.",
"K.H.J.K.e e K.e e e   e 0 e e e e   e   e e       0 e           0 e           0 e         0 e     0 e e   e e e e   e H.H.H.K.H.",
"                      e 0 e e e e   q   e e       0 e           0 e           0 e         0 e     0 e e   e e e e               ",
"            e e e e J.e 0 e e e e e   e e e       0 e           0 e           0 e         0 e     0 e e   e e e e     e e e e   ",
"    H.G.F.D.D.D.D.D.D.e 0 e e e e e e e e e       0 e           0 e           0 e         0 e     0 e e     e e       e e K.e   ",
"    G.D.D.D.D.D.F.G.F.e 0 e e e e e e e e e       0 e           0 e           0 e         0 e     0 e e               e e e e   ",
"    G.D.F.F.G.F.F.D.D.e 0 e e e e e e e e e       0 e           0 e           0 e         0 e     0 e e                         ",
"    D.D.D.F.F.D.D.F.F.e 0 e e                     0 e           0 e 4         0 e         0 e     0 e e   D.D.D.D.D.D.F.F.F.G.  ",
"    D.G.F.G.F.F.F.F.F.e 0 e e       e e           0 e         4 4 4 7 7       0 e         0 e     0 e e   G.F.F.F.G.G.F.D.G.J.  ",
"    D.D.F.H.J.F.F.H.D.e 0 e e       w e           0 e         9 0 e q 9       0 e   q q q 0 e     0 e e   G.G.F.G.H.D.D.H.H.J.  ",
"    D.D.H.G.D.F.J.G.F.e 0 e e       q e           0 e         7 7 7 q         0 e q 9 9 9 0 e e   0 e e   H.G.F.H.J.K.H.e J.K.  ",
"    D.D.D.D.G.J.D.J.F.e 0 e e       0 e           0 e         w w w q         0 e e 0 7 7 0 e q   0 e e q G.F.G.H.H.G.K.K.K.e   ",
"    D.G.D.H.G.G.D.F.H.e 0 e e       0 e           0 e           0 e w w q 0 0 0 e   e 4 # 0 e 0   0 e e 9 G.H.H.J.G.J.J.H.e e   ",
"    D.F.H.H.D.S.D.G.J.e 0 e e       0 e           0 e           0 e       7 7 0 e   w 4 4 0 e 0   0 e e e F.G.H.F.K.e H.H.e e   ",
"    D.G.D.G.S.C.S.H.H.e 0 e e       0 e           0 e           0 e     q 0 5 0 e q 6 8   0 e 0   0 e e q H.K.H.K.J.H.H.K.e K.  ",
"    D.F.D.G.D.S.D.G.K.e 0 e e       0 e           0 e           0 e   q q 7 e 0 e   q 4 q 0 e q   0 e e 9 J.G.J.K.J.G.J.e K.e   ",
"    D.G.D.G.F.F.J.J.J.e 0 e e       0 e           0 e           0 e e q e 7 e 0 e 0 0 7 7 0 e     0 e e q K.J.H.H.H.J.e K.K.e   ",
"    G.D.G.H.G.K.K.G.J.e 0 e e       0 e           0 e           0 e e q e 7 8 0 e   0 0   0 e     0 e e   e K.J.H.K.e e e e K.  ",
"    D.G.D.F.J.J.F.K.K.e 0 e e       0 e           0 e           0 e e q 0 0 7 0 e         0 e     0 e e   e e K.K.K.e K.e e e   ",
"    D.G.D.G.H.J.K.e J.e 0 e e       0 e           0 e       e e 0 e e q q 9 7 0 e 0 0 9   0 e     0 e e   K.e e K.K.K.e e e e   ",
"    F.G.J.J.J.G.e J.e e 0 e e       0 e           0 e   e e e e 0 e e e q q q 0 e 6 0 9 q 0 e     0 e e   K.e K.e K.e K.e e e   ",
"    F.G.e e J.e G.K.K.e 0 e e       0 e           0 e e e e e e 0 e e e e e e 0 e q 0 9 q 0 e     0 e e   K.e e e e K.e K.e e   ",
"    G.G.J.J.e J.K.e K.e 0 e e       q e         e q e e e   $ 7 q e e e e e e q e q q q q q e     9 w e   e K.e e e e e e e e   ",
"e e G.H.K.J.H.e e K.e e q e e q q 0 0 0 0 0 0 0 0 0 0 0 0 0 0 0 0 0 0 0 0 0 0 0 0 0 0 0 0 0 0 0 9 9 w e e K.e e e e e e e e e e ",
"w w H.K.e J.e J.w w w w w e e e e e e e e e e e e e e e e e e e e e e e e e e e e e e e e e e e e w w e w e w w w w w w w w w w ",
"q q 0 0 0 0 0 0 0 0 0 0 q q q q q q q q q q q q q q q q q q q q q q q q q q q q q q q q q q q q q q q q q 0 0 0 0 0 0 0 0 0 0 q "
};
