/* XPM */
static char *_9976bfc5ecc45578be55db2a27c8810BDXcqlbTHYku2t9Y[] = {
/* columns rows colors chars-per-pixel */
"64 64 101 2 ",
"   c #251809",
".  c #28190E",
"X  c #341505",
"o  c #371807",
"O  c #3C1B09",
"+  c #3E2E05",
"@  c #392211",
"#  c #411F0B",
"$  c #44210C",
"%  c #4A250D",
"&  c #4E280F",
"*  c #433107",
"=  c #553D0C",
"-  c #532C11",
";  c #5D3415",
":  c #593E10",
">  c #613716",
",  c #643917",
"<  c #683A17",
"1  c #653B18",
"2  c #6A3D1A",
"3  c #5D430D",
"4  c #5E4312",
"5  c #634C07",
"6  c #684F06",
"7  c #60460F",
"8  c #6B5208",
"9  c #705506",
"0  c #614514",
"q  c #684716",
"w  c #624A11",
"e  c #694916",
"r  c #654419",
"t  c #6D411C",
"y  c #6E491A",
"u  c #73441D",
"i  c #79471E",
"p  c #734A1D",
"a  c #7B491F",
"s  c #754920",
"d  c #7C4B21",
"f  c #7E5024",
"g  c #8B6A0B",
"h  c #906D08",
"j  c #9F7A0F",
"k  c #8C6B10",
"l  c #A37D0B",
"z  c #814E21",
"x  c #845124",
"c  c #8D5525",
"v  c #8F5827",
"b  c #8A5728",
"n  c #8E5929",
"m  c #905725",
"M  c #935926",
"N  c #965C29",
"B  c #995F2A",
"V  c #96602D",
"C  c #9D622C",
"Z  c #9E6630",
"A  c #A1662E",
"S  c #A3682F",
"D  c #A4682F",
"F  c #A06730",
"G  c #A26831",
"H  c #A36933",
"J  c #A46830",
"K  c #A46930",
"L  c #A76C32",
"P  c #A56B34",
"I  c #A76D34",
"U  c #A86B31",
"Y  c #AA6E33",
"T  c #AB6F34",
"R  c #AC6F34",
"E  c #AC7034",
"W  c #AE7135",
"Q  c #B17336",
"!  c #B27537",
"~  c #B37638",
"^  c #B47638",
"/  c #B67839",
"(  c #B87A3B",
")  c #BA7B3B",
"_  c #BB7C3C",
"`  c #BE7F3E",
"'  c #B78C0E",
"]  c #BC8F0A",
"[  c #BF803E",
"{  c #D5A20B",
"}  c #DDA90F",
"|  c #EFB60C",
" . c #F2B90C",
".. c #FBBF0D",
"X. c #EAB312",
"o. c #F5BB12",
"O. c #F5BB13",
"+. c #FABF13",
"@. c #C1813F",
"#. c #FEC20D",
"$. c #FBC013",
/* pixels */
"( _ ( T Y W ^ W t W ` Q / A B K x n ! Y S Y W R ~ W Z O C K ~ ` W K U Y ^ W 1 C W Q A C p 6 5 r F R i x W K / Q S B A / ^ K Y W ",
"/ / ( ^ W W W W 2 I ( C K Y N N x ; K Q Y Y K K ^ R C O N Q S S Y Y K N C C 2 C A R R P 7 #.$.w Z Y u x / Y W K W A B S U K Y A ",
"^ L R W ! R S M u T Q A C K m v C ; C A D Y C C B Y A & - Y C C C Y B N N C 2 c B C A A p h g 0 C Y t z Y K W Y Y A C C C Y K K ",
"K R Y A A K Y i d W ! Y B B m C C 2 N C B A A B m C A 2 & K Y C M A C B C m c z C K K F e ] ' 4 v K i a C C K Y C K C C B K Y K ",
"C A W ^ Y K A i b Q A N N M B N m z 2 N N N N C N M B 2 % M m m N K A m N M C u N A S K 3 | X.0 N Y N ; C A C C C K C C N S W C ",
"Y A R R W A C d d A N N N m B N B z , M C N N M C N M , % v m m m C C N C m A x d K Y A y 9 8 r G S C 2 N C A A C C C K C C A Y ",
"K W K K Y C C C ; N C B N m N N C N 2 z N N N m B B N < % m v v v m C C N m A N ; C S G 3 ..O.3 n C C x 1 C N N B C K C B A A K ",
"C A A Q W K C U t M B m v m N m m B < i m m m m m m m i O 2 m v m m C A C N A C 1 B K K e l l 4 M N M x 1 N N N M C C C C A A C ",
"Y U Q R Y K A G t M N N v v m m v N 2 i m m m v v m m N $ , m v N m C C N C Q K a d K C q l l 4 v A Y A z 2 Y R C C C C K A C C ",
"^ ( ^ ^ W A Y z i N v m m m m v v m < i m N m v m v m m $ , v m B m C B B A C Y v t K N 3 #.+.3 x A A K B u C ~ S K C A ~ K C N ",
"( ^ Y / ~ A C d d N m m m N B N m m , a N M v m N m N m $ , m v v M G C C m K K c > C C 3 ..O.4 N A K A C C 1 c A A K Y Y Q C B ",
"_ W Y A C K N > B B m N N N v m M m , i m m v v m v C v $ , v m m C A Y K C Y W n > K G 3  .O.k t C A A C C d ; A S S A Y Y C S ",
"/ W T W A K C > C B N m m N m m m M 2 i m m m m v v N m - $ z m m N K Y W Y A W C 1 C A x * + : x D A G A S G t ~ W W Y W L ^ Y ",
"` ` ! ^ A A z d C M m m m N C B m m < x C N B m m m m m i O z m m C ! K ^ ` Y A C t n K A @ . C K K K A ^ ` W t W ! ^ W Y K / Y ",
"_ / Y Y A C > M B M v m N C K C m m 2 c C N m N N B N N i O z N m C W Y / / ~ A U i x U M : = N Y ~ A K ! [ L t ( ( ( / ! Y W Y ",
"K ! W A C C ; x C C m C C N B A N m 2 a N M v m m C B m i O x B m C W ^ ` ! _ A K n t K q { } 0 Z Y C T T ! K 2 ! ^ / _ W Y T Q ",
"Q ! K K A A > v C N m B C N N C C N < d M m N m m M N m a O x B N C W T / ( ! K C K s z 3 #.O.w G ~ K A ~ W C 1 W K ^ ( Y W W W ",
"T Q S K A K 2 c m N N N A K Y A B C t B B B A C M C A C a O z B Y S Y W Y ` / ( A C N u d l j r A R Y / ! W T 2 Q K W ( / / Q ( ",
"( Y K Y K C > v B m m C Y ! ( / K N 2 K C A K R D A C A z O c K W Q K K W ^ Y W A A c i Y s   f A K Y / / Y T t N W ^ / ! R Q W ",
"/ Y C Y Y A > c C C N S ( Q Q Y Y n 2 R W K A W T T A C z O B W C ^ / ( ^ ( W Y N N a t K C c A C A K ! ~ T Y i d R K K C Y Y / ",
"Q K W W Y Y 1 x C K B Y ! Y Y ~ W n t W C C N C C R K C d O N / R W ^ ^ _ ! ! Y L A z 2 K C C C C K A ! Y Y Q d d Q Y A C A C K ",
"Y K Y K W ^ 1 x B N B A W Y A K Y V 2 ! Y C C C N C Y A z O v Y W K / ^ _ Y ^ W A K x 2 C K C N N N C A A W ! x b K ! A C C C Y ",
"( Y W A Y ^ u M C C C B Q ( ^ Y K K u G Y C B Y A A A A z O x C Y K W W Y K ! Q K A x 1 B C A B N N B K A W Y d x Y A C C K C L ",
"@.Q W W T D 1 G Y C N B Y ! Q W Y K u c D A C A A C C C z X ; C R T Y Y W K K A K C x t m N D C B C B Y Y Y Y d d K C A C A A W ",
"( / ! K R R c d W C N N Y W K R Y Y t z B C A C C C B m v & - C C K K K K K C C K C N z 2 N A M N C A K A S K x d K C C C Y Y Y ",
"^ Q U K A Y G > N v N m A R Y D Y Y x z C A C N B A C m M ; - C C C Y W Y A Q S C B N B 2 z B m B M C C C C B x t N N N A S K ` ",
"L W K Q Y Y N > N B m M B ! W R A C K u m C C A C B C B N ; - C A Y K W / W K K C C C C x , N M C C B N C B C A > v C m C K W Y ",
"W ~ Y Q Y Y F 1 N N m m M Y Y Q C C C x u C C C C C B C C ; - B K / ! ^ / ~ K ! S A C C C > c N N K K Y U Y C Y 1 N A A A A W W ",
"R ~ K R A K C ; N N m v M S Y W K C C N < x C N D K C N B ; & C C W W / W Y L ~ Y ~ _ T Y 2 v K N A W ^ W Q Q ( n d Q A K A ( ( ",
"` W Y W ~ W G 2 A C m v C W W K W A Y R u x A B D A C M C , X z Y ^ Y ( ^ W Y ! W W ! / ^ 2 M A R ! W W Y W Q W N t Q C ! ^ @.@.",
"^ Y K ^ / ! G z C C m A Y / W Y A K R R t c A K C Y S M C x # i A K A W ! U K T W _ Q _ ^ 2 N K W K Y W A R W Y C 2 B S W W Q W ",
"^ W / W W C x N C C M C Y Y Y U A K Y K u z A A B B N N N N $ u Y T C K R Y W Y S Y / ^ V 2 A A C S C C C C K Y A 2 a K K Y K W ",
"~ Q Q K A 2 c B N C m K K C K W Y A K S t x C C C C m B C m $ d U K Y K Y W ! K K C / / N 2 B C A A N C N C C A C d u C K Y Y Y ",
"K Y W Y N 2 C B N C B W Q T C K W ! W W d v W C U A C B C C $ i W ^ ! Q W W ! / A C K Y n i C C C K C C M B C Y K C ; m C A Y Y ",
"! / W ( d u A A N B A W / Q Y C S / ( C d Y T K A K A A C N $ $ Y ^ R R A Y K S K Y Y K t C N B B B N C C C A A C A > N C C Y _ ",
"Y ! W ^ C 2 Y C m C W / ! ( ^ ! ~ W ~ d C Q K C C Q A K R K d # C Y R W Y S C A Y A W G 2 W C N C m C B B A K C C N x i C A A ^ ",
"` W W ~ W i Y A C S Q ( ~ Y A ( _ Y W 2 Y Y A A C K A Y K A V # K Y Y W W Y A C A K Q K 2 ~ Q C C C C m m N A C B N M > N T K ! ",
"/ T L W W t K B C K W W Y C W R / K A t Y Y S C C A Y K C Y b O C K Y K Y F C B C A R d n S W K B A C N m C C N N N C i x K A Y ",
"^ Q / K c x A N Y S A Y K C C W Y C C 1 A W A N N C Y W A A c O v N A A A C B A A C R t n A Y Y N N C m m C N C C m N N , C Q / ",
"( / / x x Y C C W W L Y K Y Y ! R K W 2 C K Y A N B C K ~ R Z $ ; C B B A B N N C B A u n A C B C m m m M m B C C B C A N s A ^ ",
"/ Q T 2 C D K Y W ! ( Y C K Y ~ Q ( c x R Y W R Y A C A ( @._ ; - C C C C N m M N M C u v C G M B N m v m m N C A Y C C A V x / ",
"T ^ x N Y C C Y ~ Q W ^ W K A W Q ! d C ( Y A / Y Y W W @./ _ > - C C C K A N m m N C m , M K C B m v v v v m B K Q R A C Q n d ",
"W T x G W K B K Q W W W A ^ R W R C i L K A C W K Q ( / [ ! / 1 - B C N C C C M m m m C 2 v C C C C v v v v m B Y A Y ! W ( N ; ",
"A v a R A B A A Y A Y A Y R W K C M t A C B C K K K W Q ` ~ Q ; ; K N N N m B C B m m C z u C C A A v m m v m N Y A Y ^ ! _ ! W ",
"K d A K A C Y K A D Y A K A K A N x 2 K A N N N A R W ! ( W ( ; ; C m m N B B C m A K C C 2 v C N M v N m m N N W Y ~ ^ / ( / K ",
"u c C C D C Y Y C C Y A A W Y C C v 1 K A N C A C K ^ Y ^ W ^ 1 ; N m m m N B v m B K B C 2 c C C m m N m m M C W T Q ~ ^ Q T K ",
"N G A A C C Y W ^ Y C K ! W W W T v , C K C C C C B A ! ( T Y , ; C N N m N C v m m M N m x , C K N m m m C m N C R _ / ( / ! K ",
"K S A A A W ( / ~ Y Q ( ( / R Y W i z C D C A Y A A R W Q W K ; ; C N m v m C M m N N m m N 2 x A N N C m B C m N K Q W ^ ( W K ",
"A R D K A / ^ ~ K T ^ ~ ! / / R C > m B S C C C B D ^ ~ ^ Y n o ; A B m m M N C A A A A A D a i W T A C m v C C B C S A Q / Y R ",
"D C C K A R ( W A Y T Y K G U K K 1 N C C K Y N C S ^ Y U Y n O n A C N m N M A ~ Q A W / ^ L d C ~ W K B N C Y Y Y K K ^ ~ K K ",
"D C B C C Y ~ Y Y A ^ K C C K K K , m N C A K C m C A A C K x # L D C B B C A A / L R Q ` ~ / T u W Q ! Y Y K K A Y W W ~ Q Y K ",
"A D C K Y Y K K / Q ~ U ^ K Y A Y > v B C B A Y K C C A K Q z O K Y C D C C A A ^ K Y W Q W S Y x C ` W Y K K ^ T Q ~ ` ~ ( T K ",
"C C F / ( ^ Y K _ ^ / W ( / ( W C u m N C Y K ! R ! ^ ^ ~ W 1 O F R A A C N A K ^ W K ! ! Y S Y d c / Y Q / Y W ^ K Q ( ( Y Q W ",
"C B C Y ( ! K A K ! ^ ^ ! ! Q ( d a A C Y T Q K L ~ ` ! / W $ - T W K K A K K C K Q W ~ ~ ( ~ R A 2 ~ ` W Y W K W ! / ^ W Y ` W ",
"M N A Q Y / ^ W T ! Y Y Q W Y W i c Y C K K Q C Y Y Q ~ Y K $ b ^ C C A K ~ Y Y K W W / Q ( Q / Y 1 K Q K Y K ! ~ Y ^ ~ W K Y K ",
"m B R R W W C W ( ~ ! A K K K K i d C C A K Y C C Y T K A C $ x Q K A K C Y / Y Y R Y ( W ! Y Q W 2 G Y Y A C Y W W K Y K K Y Y ",
"m C K K K C C Y Q T C K A A K N < v N C C C K K K A W Q K N # d Q R C C C B K Y W G A U C K Y Y A > C A A C K Y ! ~ T A A A K B ",
"m K K Q R C B K A C N C A K Y v > m m C C C C S Y S Y W Y , X u A W K N M N C A U W Y C C C C K z ; C M A A C Y K Y / W S C C B ",
"C K A Y ! A C C K Y C A N C Y m , N M B C K K K K K ^ Y Q > % v C A A C N N C C Y K Y W Y A A C a d C m B N A Q Q ~ ^ / ^ K C N ",
"R Q ^ Y K ! ! Y K W Y K A A U M , B m m N Y W Y C C Y K U 2 - C C C C C C C C C C C K Q R C C R i d A B N N B K Y / ! ^ ~ _ C C ",
"K ~ _ _ W Y Y @.^ ! W A C K K M 2 A N K K A K K Y C C C K t - K A C C Y A B A C C B A A Y B N C < z A B N N Y W Y ~ ^ / ^ ! S K ",
"( ^ / / W K W ( ( Q W K A Y R C x C N C A W Y R A Y W Y K 2 - K A N N S D C K A W K D Y C B C m u m A N B C Y ! Y W / / ^ ! Y W ",
"( Q ^ ` W K Y R W K S A Y W Y A C N A C Y D Y G C Y Q K D > - K C S C K A K C B W ~ T W ~ K K K A A Y C C A A W Y / ( ~ _ Q T W ",
"( T Q [ _ W Y _ W G T S K Y K K Y C B A C C C B C K U A C 1 # B Y A K C Y W C A U ^ Q K T Y W R C A K A C C Y K A K W ^ ` W Y ! "
};
