/* XPM */
static char *_09a71732c624ebac01ba7fcd5cfb447eD2OgQUAUcFhvMw7[] = {
/* columns rows colors chars-per-pixel */
"64 64 256 2 ",
"   c black",
".  c #0000A8",
"X  c #00A800",
"o  c #00A8A8",
"O  c #A80000",
"+  c #A800A8",
"@  c #A85400",
"#  c gray66",
"$  c gray33",
"%  c #5454FC",
"&  c #54FC54",
"*  c #54FCFC",
"=  c #FC5454",
"-  c #FC54FC",
";  c #FCFC54",
":  c gray99",
">  c #ECECEC",
",  c gainsboro",
"<  c #D0D0D0",
"1  c #C0C0C0",
"2  c #B4B4B4",
"3  c gray66",
"4  c #989898",
"5  c gray55",
"6  c #7C7C7C",
"7  c gray44",
"8  c #646464",
"9  c gray33",
"0  c #484848",
"q  c gray22",
"w  c #2C2C2C",
"e  c #202020",
"r  c #FC0000",
"t  c #EC0000",
"y  c #E00000",
"u  c #D40000",
"i  c #C80000",
"p  c #BC0000",
"a  c #B00000",
"s  c #A40000",
"d  c #980000",
"f  c #880000",
"g  c #7C0000",
"h  c #700000",
"j  c #640000",
"k  c #580000",
"l  c #4C0000",
"z  c #400000",
"x  c #FCD8D8",
"c  c #FCB8B8",
"v  c #FC9C9C",
"b  c #FC7C7C",
"n  c #FC5C5C",
"m  c #FC4040",
"M  c #FC2020",
"N  c #FC0000",
"B  c #FCA85C",
"V  c #FC9840",
"C  c #FC8820",
"Z  c #FC7800",
"A  c #E46C00",
"S  c #CC6000",
"D  c #B45400",
"F  c #9C4C00",
"G  c #FCFCD8",
"H  c #FCFCB8",
"J  c #FCFC9C",
"K  c #FCFC7C",
"L  c #FCF85C",
"P  c #FCF440",
"I  c #FCF420",
"U  c #FCF400",
"Y  c #E4D800",
"T  c #CCC400",
"R  c #B4AC00",
"E  c #9C9C00",
"W  c #848400",
"Q  c #706C00",
"!  c #585400",
"~  c #404000",
"^  c #D0FC5C",
"/  c #C4FC40",
"(  c #B4FC20",
")  c #A0FC00",
"_  c #90E400",
"`  c #80CC00",
"'  c #74B400",
"]  c #609C00",
"[  c #D8FCD8",
"{  c #BCFCB8",
"}  c #9CFC9C",
"|  c #80FC7C",
" . c #60FC5C",
".. c #40FC40",
"X. c #20FC20",
"o. c #00FC00",
"O. c #00FC00",
"+. c #00EC00",
"@. c #00E000",
"#. c #00D400",
"$. c #04C800",
"%. c #04BC00",
"&. c #04B000",
"*. c #04A400",
"=. c #049800",
"-. c #048800",
";. c #047C00",
":. c #047000",
">. c #046400",
",. c #045800",
"<. c #044C00",
"1. c #044000",
"2. c #D8FCFC",
"3. c #B8FCFC",
"4. c #9CFCFC",
"5. c #7CFCF8",
"6. c #5CFCFC",
"7. c #40FCFC",
"8. c #20FCFC",
"9. c #00FCFC",
"0. c #00E4E4",
"q. c #00CCCC",
"w. c #00B4B4",
"e. c #009C9C",
"r. c #008484",
"t. c #007070",
"y. c #005858",
"u. c #004040",
"i. c #5CBCFC",
"p. c #40B0FC",
"a. c #20A8FC",
"s. c #009CFC",
"d. c #008CE4",
"f. c #007CCC",
"g. c #006CB4",
"h. c #005C9C",
"j. c #D8D8FC",
"k. c #B8BCFC",
"l. c #9C9CFC",
"z. c #7C80FC",
"x. c #5C60FC",
"c. c #4040FC",
"v. c #2024FC",
"b. c #0004FC",
"n. c #0000FC",
"m. c #0000EC",
"M. c #0000E0",
"N. c #0000D4",
"B. c #0000C8",
"V. c #0000BC",
"C. c #0000B0",
"Z. c #0000A4",
"A. c #000098",
"S. c #000088",
"D. c #00007C",
"F. c #000070",
"G. c #000064",
"H. c #000058",
"J. c #00004C",
"K. c #000040",
"L. c #282828",
"P. c #FCE034",
"I. c #FCD424",
"U. c #FCCC18",
"Y. c #FCC008",
"T. c #FCB400",
"R. c #B420FC",
"E. c #A800FC",
"W. c #9800E4",
"Q. c #8000CC",
"!. c #7400B4",
"~. c #60009C",
"^. c #500084",
"/. c #440070",
"(. c #340058",
"). c #280040",
"_. c #FCD8FC",
"`. c #FCB8FC",
"'. c #FC9CFC",
"]. c #FC7CFC",
"[. c #FC5CFC",
"{. c #FC40FC",
"}. c #FC20FC",
"|. c #FC00FC",
" X c #E000E4",
".X c #C800CC",
"XX c #B400B4",
"oX c #9C009C",
"OX c #840084",
"+X c #6C0070",
"@X c #580058",
"#X c #400040",
"$X c #FCE8DC",
"%X c #FCE0D0",
"&X c #FCD8C4",
"*X c #FCD4BC",
"=X c #FCCCB0",
"-X c #FCC4A4",
";X c #FCBC9C",
":X c #FCB890",
">X c #FCB080",
",X c #FCA470",
"<X c #FC9C60",
"1X c #F0945C",
"2X c #E88C58",
"3X c #DC8854",
"4X c #D08050",
"5X c #C87C4C",
"6X c #BC7848",
"7X c #B47044",
"8X c #A86840",
"9X c #A0643C",
"0X c #9C6038",
"qX c #905C34",
"wX c #885830",
"eX c #80502C",
"rX c #744C28",
"tX c #6C4824",
"yX c #5C4020",
"uX c #543C1C",
"iX c #483818",
"pX c #403018",
"aX c #382C14",
"sX c #28200C",
"dX c #600064",
"fX c #006464",
"gX c #006060",
"hX c #00001C",
"jX c #00002C",
"kX c #302410",
"lX c #480048",
"zX c #500050",
"xX c #000034",
"cX c gray11",
"vX c #4C4C4C",
"bX c gray36",
"nX c gray25",
"mX c gray19",
"MX c #343434",
"NX c #D8F4F4",
"BX c #B8E8E8",
"VX c #9CDCDC",
"CX c #74C8C8",
"ZX c #48C0C0",
"AX c #20B4B4",
"SX c #20B0B0",
"DX c #00A4A4",
"FX c #009898",
"GX c #008C8C",
"HX c #008484",
"JX c #007C7C",
"KX c #007878",
"LX c #007474",
"PX c #007070",
"IX c #006C6C",
"UX c #980088",
/* pixels */
"0 vX0 vX$ R R 0 0 vXvX0 0 0 0 0 vXvX$ $ $ 0 vXvXvXvXvXvXvX0 0 0 0 nX0 0 0 0 nX0 vX0 0 0 nXnXnX0 0 0 0 0 0 0 0 0 0 R R vX0 nX0 0 ",
"7 7 7 R R T T W R R i i p p p a s d f a i 8X4X2X2X2X2X2X2X2X2X2X2X2X2X2X2X2X2X2X2X4X8Xi a f d s a p p p i i R R W T T R R 8 7 8 ",
"8 8 P P I I I R Y Y i i i p p p a s f d a i r 0X8X8X8X8X8X8X8X8X8X8X8X8X8X8X8X8X0Xr i a d f s a p p p i i i Y Y R I I I P P 7 8 ",
"7 7 8 Y Y U U T U U i u i p p p a s d f f a i r r tXrXeXeXeXeXeXeXeXeXeXeXrXtXr r i a f f d s a p p p i u i U U T U U Y Y 8 7 7 ",
"6 7 $ nXmXT T L.w w i u u i p p p a a f f f s p u t r < 7 < L.e e L.< L.< r t u p s f f f s a p p p i u u i mXw L.T T mX0 $ 7 7 ",
"vX0 q L.cXcXcXcXcXcXp i u i p p p p a s f g f d p p i < 7 < e e e e < e < i p p d f g 6 4 4 4 4 # p i u i p cXcXcXcXcXcXL.MX0 vX",
"0 nXw L.e cXcXcXcXcXa i u u i p p p p a d f g g g f s 4 mX# cXcXcXcX#   4 s f g g g f 4 e L.mXe # i u u i a cXcXcXcXcXcXe MXnX0 ",
"7 8 bX$ 0 q q q q w s p i i i p p p a a s d g h h h g 6 e 6         6   6 g h h h 6 4 4 4   cX# # # # i p s w q MXMXq 0 0 bXbX7 ",
"5 4 5 6 6 7 8 7 8 0 d p i i i p p p a a a s f g g h h 7 cX7         7   7 h h g g 4 e 4 4     # # L.# i p d $ bX8 8 7 6 6 6 5 5 ",
"4 4 4 5 5 5 5 5 7 $ f s p u i i p p a a p p a s f f f 6 cX7         7   6 f f f s 4 e   cX    e cXL.# p s f bX7 6 6 6 6 5 5 5 5 ",
"4 # 4 4 4 5 5 6 7 $ f d p u u i p p a a p p p a s d d 6 e 6         6   6 d d s a # e       cXcXcXL.# p d f $ 7 6 5 5 5 5 5 5 5 ",
"4 4 4 4 4 4 4 5 6 8 f f a i u i i p p a p p p p p a s 4 L.4         4   4 s a p p # e 4 4 cXcX# # mX# a f f bX8 7 5 5 4 5 5 5 5 ",
"4 4 4 4 4 # 4 5 6 8 f f s p u u i i p p p p p p p p p 4 mX4         4   4 p p p p # # 4 4 cXcX# # # # s f f bX8 5 4 5 4 5 5 4 5 ",
"4 # # 4 4 4 4 5 6 8 d f f p i u u i i p p p p p p p p # mX#         # cX# p p p p p p # e L.e mX< i p f f d 8 7 5 4 4 5 5 4 5 5 ",
"4 4 4 4 4 4 4 5 6 8 d f f d p u y i i i p p p p p p i # q # cXcXcXcX# cX# i p p p p p # # # # < < p d f f d 8 7 5 4 4 4 4 4 4 5 ",
"4 4 4 4 4 4 4 5 6 8 d f f f a u y u u i i p p p p p # 6 q # cXcXcXcX# cX# # p p p p p i i u u y u a f f f d 8 6 5 4 # 4 4 4 4 5 ",
"4 4 4 4 4 4 5 5 7 8 d f f f d p u u u i i i p p 4 4 L.cXq q q q q q q q e q 4 4 p p i i i u u u p d f f f d 8 6 5 5 4 4 4 4 4 4 ",
"4 4 4 4 4 4 5 5 6 8 d f f g f a i u u u u i i # 7 cXq L.L.7 7 7 7 7 7 L.L.q cX7 # i i u u u u i a f g f f d 8 6 5 4 4 4 5 4 4 4 ",
"4 4 4 5 5 5 4 5 6 8 d f f g f d p u y y y u # mXmXL.q 7 4 # # L.mX4 # 4 7 q L.mXmX# u y y y u p d f g f f d 8 7 5 5 4 4 5 5 5 4 ",
"4 4 4 4 4 5 4 5 6 7 d f f g f f a i y t t # mXL.q q 4 # # # L.e cXq # # # 4 q q L.mX# t t y i a f f g f f d 8 7 5 5 5 5 5 5 5 4 ",
"4 4 4 4 4 4 4 5 5 7 d f f f f f f p u t < q L.q 6 # # # # L.cXcXmX4 # # # # # # q L.q < t u p f f f f f f d 8 7 5 5 4 5 5 4 4 5 ",
"4 4 4 4 4 4 4 5 6 8 s f f f f f f s i # 6 mXq 6 # # # # L.cXcXL.4 # # # # # # # # q mX6 # i s f f f f f f s 8 6 5 4 4 4 4 4 4 5 ",
"4 4 4 4 4 4 4 5 6 8 s d f f f f f f p # e L.q < < < # L.e   e 6 # # # 4 4 # # < < q L.e # p f f f f f f d s 8 6 5 4 4 4 4 4 4 5 ",
"4 4 4 4 4 4 4 5 6 8 4 4 4 6 f f f f 4 q q q # < < < L.L.cXe 6 # # # 4 q L.q < < < # q mX7 s f f f f f 4 4 4 8 6 5 4 4 4 4 4 4 5 ",
"4 4 4 4 4 4 4 5 6 8         6 6 6 6 4 cXL.q # # # # q e cX6 # # # # 7 cXe L.q # # # q L.cX4 6 6 6 6 6       8 6 4 4 4 4 4 4 4 5 ",
"4 4 4 4 4 # 4 5 6 8 4 4 4 6           q L.6 4 # # # 4 L.e e 6 # # 7 cXe e cXe q 4 4 6 L.q             4 4 4 8 7 5 # # # 4 4 4 4 ",
"4 4 4 4 4 4 4 5 6 8         6 6 6 6 6 7 mX6 6 4 4 4 4 6 L.cXe 6 7 cXcXq 6 e   cXq 4 6 mX7 6 6 6 6 6 6       bX7 5 4 4 4 4 4 5 4 ",
"4 4 4 4 4 4 4 5 6 8                   L.L.6   mX6 6 6 6 7 e         mX6 6 8       q 6 L.L.                  bX6 5 4 4 4 5 5 4 4 ",
"4 4 4 4 4 4 4 5 6 8                   mXe e     L.7 7 7 7 q         q 7 7 7 7       mXe L.                  bX7 5 5 4 4 5 4 5 4 ",
"4 4 4 4 4 4 4 5 6 8                   L.L.7 e     L.7 7 q e         cXq 7 7 6 7 cX  q L.L.                  8 7 5 4 4 4 4 4 4 4 ",
"4 4 4 4 4 4 4 5 6 8 4 4 4 4           L.L.6 6 L.    L.q L.            cX7 6 6 4 6 7 6 L.e             4 4 4 8 7 5 4 4 4 4 4 4 4 ",
"4 4 4 4 4 4 4 5 6 bXmXmXmXmX4 4 6 6 6 6 mX6 4 6 L.    cX      7 7 cX    e 6 4 4 4 4 7 mX6 6 6 6 4 4 4 mXmXmX8 7 5 4 4 4 4 4 4 4 ",
"4 4 4 4 4 4 4 5 7 8 # # # 4 mXL.L.e e   q mX4 4 6 mX        7 6 6 7 e     mX6 4 4 4 mXq   e e L.L.mXmX# # # bX7 5 5 4 4 4 4 4 4 ",
"5 4 5 5 5 5 4 5 7 8 p p p p 4 4 4 4 6 cXmXe 6 4 4 4 mX  e 6 4 4 4 6 L.    q 4 4 4 6 e L.e 6 4 4 4 4 4 p p p bX7 5 5 5 5 4 4 5 5 ",
"5 4 4 5 5 4 4 5 7 8 p p p p p a a d f 7   q mX6 4 4 4 7 6 4 4 4 4 mX    q 4 4 4 6 mXq   7 f d a a p p p p p 8 7 5 5 5 5 5 5 5 5 ",
"5 5 4 5 5 5 4 5 6 8 p p p p p p p s d 6 e mXL.6 4 4 4 4 # # # 4 q   cXq 4 4 4 4 7 L.L.e 6 d s p p p p p p p 8 7 5 4 4 4 5 5 5 5 ",
"4 4 5 5 5 5 5 5 7 bXp p p p p p p a s d 6   q L.6 4 # # # # 4 q   cXq 4 # # 4 6 L.q   6 d s a p p p p p p p 8 6 5 4 4 4 4 5 5 4 ",
"4 5 5 6 5 6 5 5 7 bXp p p p p p p p p s f 7   q L.6 # # # 4 e cXcXmX4 # # # 6 mXq   7 f s p p p p p p p p p 8 6 5 4 4 4 4 5 5 4 ",
"5 5 5 5 5 6 5 5 7 bXp p p p p p p p p a s f 7   q q q 4 # # 7 cXmX4 # # 4 q q q   7 f s a p p p p p p p p p 8 6 5 4 4 4 # 4 4 4 ",
"5 5 5 5 4 5 5 5 7 bXp p p p p p p p p p a s d 7 cXL.q q q 7 6 7 6 6 7 mXq q L.cX7 d s a p p p p p p p p p p 8 6 5 4 4 4 # 4 4 4 ",
"5 5 4 4 5 5 5 5 7 bXp p p p p p p p p p p a s d 6 mX  L.q q q q q q q q L.  mX6 d s a p p p p p p p p p p p 8 6 5 4 4 4 4 4 4 4 ",
"4 5 4 5 5 5 5 5 7 8 p p p p p p p p p p p p a d d 6 6 L.L.6   cXcX  6 L.mX6 6 d d a p p p p p p p p p p p p 8 6 5 # 4 4 4 5 5 4 ",
"5 4 5 5 5 5 5 5 7 bXp p p p p p p p p i p p a s s d d 4 L.4         4   4 d d s s a p p i p p p p p p p p p 8 6 5 4 4 4 5 5 5 5 ",
"5 5 5 5 5 5 4 5 7 bXp p p p p p p p i i p p p a a s s 4 L.4         4   4 s s a a p p p i i p p p p p p p p bX7 5 5 4 4 4 5 5 5 ",
"4 5 5 5 5 5 5 5 7 bXa a p p p p p p i i i p p p p a s 4 L.4         4   4 s a p p p p i i i p p p p p p a a 8 6 5 4 4 4 4 4 4 5 ",
"4 4 5 5 5 5 5 5 7 bXs a a p p p p p i i i i p p p p a 4 mX4   cXcX  4   4 a p p p p i i i i p p p p p a a s 8 6 5 4 4 4 4 4 4 5 ",
"4 4 5 5 5 5 5 5 7 bXs s a a p p p i i i i i i i p p p # mX# cXcXcXcX# cX# p p p i i i i i i i p p p a a s s 8 6 5 # # 4 4 4 5 5 ",
"5 4 4 5 5 5 5 5 7 bXs s s a p p i i i i i i u i i i i # q # cXe e cX# cX# i i i i u i i i i i i p p a s s s bX6 5 4 4 4 4 # 4 5 ",
"4 4 5 5 4 5 5 5 7 bXd d d d s p p i i i i u u u i i i # q < e e e e < e # i i i u u u i i i i p p s d d d d bX6 5 4 4 4 5 4 5 5 ",
"5 4 4 5 4 5 5 5 7 bXd d d d d a p p p i i u u u u u u # q < e e e e < e # u u u u u u i i p p p a d d d d d bX6 5 4 4 5 5 5 5 5 ",
"5 4 4 5 4 4 5 5 7 bXd d d d d s a p p i i i u u u u u < nX< e e e e < e < u u u u u i i i p p a s d d d d d bX6 5 4 5 5 5 5 5 5 ",
"5 5 5 5 4 4 4 5 7 bXd d d d d d s s a p p i i u u u y < nX< e e e e < e < y u u u i i p p a s s d d d d d d bX7 5 5 5 5 4 4 4 5 ",
"5 5 4 4 4 4 4 5 6 bXd d d d d d d d d s a p p i i u y < q < e e e e < e < y u i i p p a s d d d d d d d d d bX6 5 4 5 4 4 5 4 4 ",
"5 5 4 4 5 5 4 5 6 bXs d d f f f d d f f d d s a p p p # q # cX    cX# cX# p p p a s d d f f d d f f f d d s 8 6 5 4 4 5 5 4 4 4 ",
"4 5 4 5 5 4 4 5 7 bXs d f f f f d d f f f f d d d s s 4 mX4         4   4 s s d d d f f f f d d f f f f d s 8 6 5 4 4 4 5 5 5 4 ",
"5 5 5 5 5 4 5 5 6 8 q d f f f f d f f f f f f f f f f 4 e 6         6   4 f f f f f f f f f f d f f f f d q 8 6 5 4 4 4 5 5 5 5 ",
"5 6 5 5 5 5 5 5 6 8 q e cX  f f f f f f f f f f f f f 6 e 6         6   6 f f f f f f f f f f f f f   cXe nX8 6 5 4 4 5 5 5 5 5 ",
"5 5 5 5 5 5 4 4 5 7 0 MXe cXf f f f f g g g g g h h h 7 cX7         7   7 h h h g g g g g f f f f f cXe MX$ 8 6 4 4 5 5 5 5 4 5 ",
"5 5 5 5 5 5 5 5 6 7 bXvXMXL.cXf f f f g g g g g h h h 7 cX7         7   7 h h h g g g g g f f f f cXL.q vX8 7 6 5 5 5 5 5 5 5 5 ",
"5 5 5 5 5 5 5 5 5 6 7 8 $ nXL.cXf f f g g g g g h h h 7 cX7         7   7 h h h g g g g g f f f cXL.nX$ 7 6 6 5 5 4 4 4 5 5 5 6 ",
"6 7 6 7 6 6 6 6 6 6 7 7 $ vXq e cX    f f g g g g g g 7 cX7         7   7 g g g g g g f f     cXe mX0 $ 8 8 6 6 6 6 6 6 6 6 6 7 ",
"vX0 0 0 0 0 0 0 0 0 0 0 q q MXe cX                                                            cXe L.mXq nXnXnX0 nX0 nXnX0 0 0 0 ",
"$ bX$ $ $ $ $ $ $ $ $ bX$ vX0 q w e cXcXcXcXcXcXcX    cXcX                          cXcXcXcXe w mXnXvX$ $ $ bXbX$ vXvXvX$ $ $ $ ",
"bX8 8 bX8 8 8 8 8 8 8 8 8 bX8 bX$ nXnXmXL.L.L.L.L.e e e e e e e e e e e e L.e e e e e L.w MXq nXvXbXbXbX8 bX8 8 8 8 8 8 8 bXbX$ "
};
