/* XPM */
static char *_89627abcd5c4309ffaa0d6c9e0b1250k7OCsTcSRr343W0U[] = {
/* columns rows colors chars-per-pixel */
"64 64 149 2 ",
"   c gray12",
".  c #140700",
"X  c #160900",
"o  c #1A0B02",
"O  c #200D02",
"+  c #241205",
"@  c #291507",
"#  c #2A1708",
"$  c #251809",
"%  c #2D1909",
"&  c #331D0A",
"*  c #391F0B",
"=  c #3E2E05",
"-  c #37200C",
";  c #3A210D",
":  c #392211",
">  c #41240D",
",  c #433107",
"<  c #553D0C",
"1  c #412710",
"2  c #462A11",
"3  c #4A2B11",
"4  c #532F12",
"5  c #543215",
"6  c #5D3516",
"7  c #5A3C12",
"8  c #5D3919",
"9  c #603716",
"0  c #623917",
"q  c #643B19",
"w  c #693E1A",
"e  c #5D430D",
"r  c #5E4312",
"t  c #634C07",
"y  c #684F06",
"u  c #60460F",
"i  c #6B5208",
"p  c #705506",
"a  c #614514",
"s  c #684716",
"d  c #624A11",
"f  c #694916",
"g  c #66431A",
"h  c #6C421C",
"j  c #6E491A",
"k  c #73451E",
"l  c #74491D",
"z  c #7B4A1F",
"x  c #6E4720",
"c  c #714720",
"v  c #754A21",
"b  c #7C4C21",
"n  c #7D5023",
"m  c #8B6A0B",
"M  c #906D08",
"N  c #9F7A0F",
"B  c #8C6B10",
"V  c #A37D0B",
"C  c #814E22",
"Z  c #835224",
"A  c #8A5525",
"S  c #8E5827",
"D  c #845528",
"F  c #895728",
"G  c #875829",
"H  c #8D5A29",
"J  c #935A27",
"K  c #955D29",
"L  c #995F2A",
"P  c #97612D",
"I  c #9D622C",
"U  c #9E6631",
"Y  c #9D6933",
"T  c #A1662E",
"R  c #A3682F",
"E  c #A06730",
"W  c #A56A31",
"Q  c #AA6D33",
"!  c #AD7034",
"~  c #AD7035",
"^  c #AC7034",
"/  c #AE7134",
"(  c #AE7135",
")  c #AF7135",
"_  c #AF7235",
"`  c #AF7236",
"'  c #AE7237",
"]  c #AE7135",
"[  c #AC7338",
"{  c #AD7338",
"}  c #B07336",
"|  c #B17336",
" . c #B17436",
".. c #B17437",
"X. c #B17537",
"o. c #B27437",
"O. c #B27537",
"+. c #B17437",
"@. c #B37538",
"#. c #B27538",
"$. c #B47638",
"%. c #B47738",
"&. c #B57739",
"*. c #B47739",
"=. c #B67739",
"-. c #B47638",
";. c #B57839",
":. c #B67839",
">. c #B77839",
",. c #B7793A",
"<. c #B6783A",
"1. c #B6783A",
"2. c #B8793A",
"3. c #B97A3A",
"4. c #B87A3B",
"5. c #B97A3B",
"6. c #B97B3B",
"7. c #B87A3A",
"8. c #BA7B3B",
"9. c #BA7C3C",
"0. c #BB7C3C",
"q. c #BB7D3C",
"w. c #BC7D3C",
"e. c #BC7E3D",
"r. c #BE7E3D",
"t. c #BF7F3D",
"y. c #BE7F3E",
"u. c #BA7B3B",
"i. c #B78C0E",
"p. c #BC8F0A",
"a. c #BF803E",
"s. c #D5A20B",
"d. c #DDA90F",
"f. c #EFB60C",
"g. c #F2B90C",
"h. c #FBBF0D",
"j. c #FABE0D",
"k. c #EAB312",
"l. c #F5BB13",
"z. c #F5BB12",
"x. c #FABF13",
"c. c #C1813F",
"v. c #C1823F",
"b. c #FFC30D",
"n. c #FEC20D",
"m. c #FBC013",
"M. c #C38340",
"N. c #C48541",
"B. c #C58642",
/* pixels */
"4.0.4.Q Q ( $.( h ( y.| 4.Q Q 6 W W W Q :.:.:.0.( @.M.N.h o X D y.O.@.4.y.O.q I ( | T I l y t g E Q z Z ( W :.| R L T :.$.W Q ( ",
":.:.4.$.( ( ( ( w Q 4.W :.:.F w $.( T K T Q :.0.$.O.y.N.; X X 1 I 4.Q O.$.O.w P R Q Q W u n.m.d U Q k Z :.Q ( W ( T L R Q W Q T ",
"$.W Q ( O.Q R J k Q :.( Q ( Z b $.( W I I ( O.0.y.4.c.Y #   o . 5 0.4.0.$.0.k A I I T T l M m a I Q h C Q W ( Q Q T I I I Q W W ",
"W Q Q T T W Q k b ( O.Q Q W A b T T T T T T ( O.( 0.[ & X     X + F :.@.4.Q J h I W W E f p.i.r A W k z I I W Q I W I I L W Q W ",
"I T ( $.Q W T k F O.( T ( W W q J T I I Q I ( O.:.O.Y o         X G 4.:.$.W W 0 K R W W e f.k.a J Q K 6 I T I I I W I I K R ( I ",
"Q T Q Q ( T I b b Q ( ( ( Q ( h K T I I I I W O.y.Q 2 X         o D 4.| ( Q Q k k Q Q T j p i g W R I w J I T T I I I W I I T Q ",
"W ( W W Q I I I 9 I R Q W Q ( h A I T R I T $.$.4.b X           o F 4.:.| Q Q P 5 I W W e h.l.e H I I Z q I K K L I W I L T T W ",
"I T T | ( W I W h K I R T W Q S q ( T T ( I | ( $.8 X           X h ( 0.( Q Q R q K W W f V V r J K J Z q K K K J I I I I T T I ",
"Q Q | Q Q W T W h I Q | W R Q I 0 T T T Q T Q Q I + X           X # K :.( Q @.( Z b W I s V V r A T Q T C w Q Q I I I I W T I I ",
"$.4.$.$.( T Q C b Q T ( ( W Q b 6 I I R W W W | I +               X 8 Q Q O.Q ( J w W K e n.x.e Z T T W L k I @.R W I T @.W I K ",
"4.$.Q :.@.T I k z I L I I I T 6 z L I W ( I T T F +               X 2 T I ( :.Q A 0 I I e h.l.r J T W T I I q A T T W Q Q | I L ",
"0.( Q T I W K 0 I I I I L T Q 6 A L W L I J L C & X                 o 8 T Q ( ( H 0 W W e g.z.B h I T T I I b 6 T R R T Q Q I R ",
":.( Q ( T W I 0 T I I I L I T 6 A K I L L I J & X                   X & I W Q ( I q I T Z , = 7 Z R T W T R W h @.( ( Q ( W $.Q ",
"y.y.O.$.T T C b T L I I K K L 9 S I K L I L q o                       & I W Q T T h H W T : $ I W W W T $.y.( h ( O.$.( Q W :.Q ",
"0.:.Q Q T I 0 K I L J J L K K 6 S I T L L L 2 X                       o v O.Q T Q z Z Q J 7 < J Q @.T W O.a.W h 4.4.4.:.O.Q ( Q ",
"W O.( T I I 6 A I T L I K I I 6 A L L J L L 2 .                       . g | Q T W H h W s s.d.a U Q I Q Q O.W w O.$.:.0.( Q Q | ",
"| O.W W T T 0 A I L L I K I T 6 A L L J J K 2 .                       . q Q I K I W v C e n.l.d E @.W T @.( I q ( W $.4.Q ( ( ( ",
"Q | R W T W w A J K L K K K I 9 Z K K J J z + X                       X & H T I T I J k n V N g T Q Q :.O.( Q w | W ( 4.:.:.| 4.",
"4.Q W Q W I 0 S L J K L J J J 6 A K K K J 5 X                           . 2 :.| W T Z h Q c $ n T W Q :.:.Q Q h K ( $.:.O.Q | ( ",
":.Q I Q Q T 0 A I T I W T I L 6 A I K I H # X                           . ; ^ O.I I b w W I A I I T W O.@.Q Q k b Q W W I Q Q :.",
"| W ( ( Q Q q A T Q T W ( $.T b z T T K * o                               X v ( T Q Z w W I I I I W T O.Q Q | b b | Q T I T I W ",
"Q W Q W ( $.q A I T W I W R W E 6 K I h o o                               X q | T | A w T W I K K K I T T ( O.Z A W O.T I I I Q ",
"4.Q ( T Q $.k J T T W I Q T W W q I b + X                                   + L Q W A q I I I L K K L W T ( Q b Z Q T I I W I W ",
"c.| ( ( Q R q W Q T T W ( Q Q W 0 C 3 X                                     + J Q W A q J K R I L I L Q Q Q Q b b W I T I T T ( ",
"u.:.O.W Q Q A b $.( Q ( Q Q Q K 0 Z o o                                     o 8 T I I C q K T J K I T W T R W Z b W I I I Q Q Q ",
"$.| Q W T Q E 0 I T $.:.O.W K k F & X                                       X % J T W I w C L J L J I I I I L Z h K K K T R W y.",
"W ( W | Q Q K 0 I Q Q $.R ( Z * & X                                           X q T W I Z q K J I I L K I L I T 9 S I J I W ( Q ",
"( @.Q | Q Q W 0 L T W W I I 5 X X                                             X # A W T I 0 A K K W W Q Q Q I Q q K T T T T ( ( ",
"Q @.W Q T W I 0 I L Q ( Q q o                                                   o 8 Q Q ( h S W K T ( $.( | | 4.H b | T W T 4.4.",
"y.( Q ( @.( W w | ( Q Q P & X                                                   . 3 ( 4.$.w J T Q O.( ( Q ( | ( J h | I O.$.c.c.",
"$.Q W @.:.$.P 6 Q c.4.| Z o                                                       + K $.I w K W ( W Q ( T Q ( Q I w L R ( ( | ( ",
"$.( :.( | J w A ( :.$.O.H o                                                       o n W b w T T I R I T I I W Q T w z W W Q W ( ",
"@.| | W T 4 C T T Q Q T A o                                                       o 6 W z b L I T T L I K I I T I b k I W Q Q Q ",
"W Q ( Q K w W T I O.W T v o                                                         o h 0 I I I I W I I J L I Q W I 6 J I T Q Q ",
"O.:.( 4.v h Q ( W @.( O.;                                                           . 5 q L I I I I I T T I T R I T 9 K I I Q 0.",
"Q O.( $.P 6 ( Q W W W h o                                                           X 3 6 K I I T K R I I W Q I I K Z k I T T $.",
"y.( ( @.O.w O.4.O.( g o X                                                             o > K Q I W W R I I T R I L J J 0 K Q W O.",
":.Q W $.$.w @.Q ( [ - X                                                               X > I I K I ( T L I T I K K K I k Z W T Q ",
"$.| 4.:.H A ( Q O.v X                                                                 X + k K J L T T K I Q L I I J K K 0 I | :.",
"4.:.4.A F @.Q W Q c X                                                                   X + A K I I L L T I I I I L I T J v T $.",
":.| Q w W $.( Q W x X                                                                   X + S I K I I T ( T I R Q W I I T P Z :.",
"Q :.Z K ( W W O.I # X                                                                   X 5 I I K K K I Q Q I T W | Q T I | H b ",
"| O.b U a.4.Q | I + O                                                                     5 T T K T I I Q W W ( Q W Q O.( 4.J 6 ",
"Q W k $.| $.$.Q h o                                                                       + H W I W Q Q Q T Q Q Q Q Q $.O.0.O.( ",
"Q b E @.( Q ( $.5                                                                         o b I T Q W Q | ( W W O.| $.$.:.4.:.W ",
"k J W Q O.( ( P &                                                                         X # b Q ( Q O.:.Q :.y.4.:.O.@.$.| Q W ",
"K Q Q Q Q W T 6 X                                                                           X % I $.Q Q W Q :.0.O.:.0.:.4.:.O.W ",
"Q Q ( Q ( @.K # o                                                                             o 8 T $.@.W Q ( O.W W | ( $.4.( W ",
"W ( W T Q :.W # o                                                                               o 8 $.:.W T O.( I T W W | :.Q Q ",
"$.Q Q ( W Q h o                                                                                 X + K W ( @.@.:.( ( W Q $.@.W W ",
"$.Q W Q $.Q 3 .                                                                                   X 8 W | y.4.| ( 4.( | O.| Q W ",
"( Q Q Q ( H + X                                                                                   X # b ( :.:.4.:.4.$.y.$.4.Q W ",
"Q Q | Q W b o                                                                                       X & I W $.4.0.O.$.4.4.Q | ( ",
"Q Q Q T Q > X                                                                                         o b 0.@.$.$.$.:.$.( Q y.( ",
"Q W W R k o X                                                                                         X 1 @.:.$.$.:.4.@.O.Q Q W ",
"Q R Q Q 6 .                                                                                           o o D :.W | O.| @.( Q Q ( ",
"W I W ( 8 .                                                                                             . ; I I I W | @.W W ( W ",
"R W W K + o                                                                                               o 5 T ( I W 4.( T T W ",
"Q W ( A o                                                                                                 o o 5 | @.| O.4.( T I ",
"W T T 0                                                                                                     o X 8 ( $.9.| O.Q W ",
"W | I %                                                                                                         o * v ( Q @.O.Q ",
"( 4.c X                                                                                                           X o ; J O.$.Q ",
"$.Q % X                                                                                                             o X + 8 H O.",
"4.h o                                                                                                                   X X % 8 "
};
